<svg version="1" xmlns="http://www.w3.org/2000/svg" width="1333.333" height="1333.333" viewBox="0 0 1000.000000 1000.000000"><path d="M0 500v500h1000V0H0v500zm927.6-135.1c9.7 4.4 9.9 12.5.7 23.9-1.9 2.3-27.2 24.3-56.1 48.9-29 24.5-53.1 44.9-53.5 45.3-.5.4-1.5 3.7-2.4 7.4-.8 3.7-4.2 11.9-7.8 18.9-4.3 8.3-6.8 14.8-8 20.2-2.4 11.1-5.1 15.8-14.7 26.3-17 18.4-18.3 26.5-9.4 55.4.8 2.7 1.4 4.8 1.2 4.8-.7 0-10.6-13-12.1-16.1-2.6-4.9-3.1-16.9-1.1-24.9.9-3.6 3.4-10.2 5.6-14.7l3.9-8.3-6.1 5.1c-3.3 2.8-8.4 6.3-11.2 7.9-2.8 1.6-6 4.4-7 6.2-3.4 5.8-14.7 16.7-22.6 21.7-4.2 2.7-12.4 7.3-18.2 10.2l-10.7 5.3 2 2.7 1.9 2.7-2.9 2.1-2.9 2.1-2-2.7-2-2.7-7 6.6c-13.7 12.9-28.4 18.5-46.7 17.5-12.4-.6-13.5-1-12.6-4.5.7-2.7.8-2.7 12.7-3.3 16.1-.8 26.3-4.6 38.1-14.2l5.3-4.2-3.3-1.1-3.2-1.1 5.8-1.8c5.9-1.9 6.2-2.2 4.9-4.2-.6-1-2.5-.4-7.5 2.3-3.7 1.9-7.3 3.4-8 3.1-.6-.2-2.8.8-4.7 2.3-4 3.1-8.6 5.6-13.9 7.5-2 .7-7.3 2.7-11.8 4.4-4.6 1.7-8.3 2.9-8.3 2.6 0-.2 5.4-4.1 12.1-8.6 6.6-4.6 14.3-10.7 17-13.7 5.4-5.9 9.9-13.8 9.9-17.4 0-1.9-.4-1.7-2.6 1.7-3.2 4.8-5.1 6.8-3.5 3.8 1.8-3.6 1.3-3.7-2.6-.4-9.7 8.1-15.5 12.2-21.6 15.6-5.7 3.1-6.8 3.4-7.3 2.1-.3-.9-1-1.6-1.5-1.6-1.6 0-6.8 10.3-12.1 23.9-2.9 7.4-5.4 12.9-5.5 12.4-.4-1 4.1-28.6 5.3-33.1.8-2.7.3-2.7-4.4-.3-5.4 2.7-32.4 13.2-32.9 12.8-.2-.2 2.5-2.3 5.9-4.5 3.5-2.3 5.9-4.2 5.3-4.2-1 0-12.4 1.8-16 2.5-1.1.2-4.9 1.5-8.5 2.8-5.5 2.1-9.1 2.5-23.3 3.1-10.9.5-18.3 1.3-21 2.3-2.3.8-8 1.6-12.7 1.8-4.7.2-10.5 1-13 1.8-6 1.9-34 1.2-34-.9 0-1-.7-1-3.6.2-1.9.8-10.1 2.1-18.2 2.9-8.1.8-16.5 1.9-18.7 2.5-5.5 1.3-6.2 1.2-3.9-.6 1.8-1.4 1.6-1.5-2.1-.9l-4 .6 6.7-4.4c8.1-5.2 9.1-6 5.2-4.7-3.2 1.1-29.4 5.9-29.4 5.4 0-.2 1.2-1 2.8-1.9 2.7-1.6 2.6-1.6-2.8-1.1-3 .3-7.7.8-10.5 1.1l-5 .6 5-2.1c6.8-2.9 6.9-3.4.5-2.6-6.3.8-6.4 1 2.6-5 3.8-2.5 6-4.3 4.9-3.9-1.1.4-5.1 1.8-8.9 3.2-6.6 2.4-7 2.4-8.2.8-.8-1-1.5-2.2-1.6-2.7-.2-.5-10.2 1.1-22.3 3.6-12.1 2.4-22.1 4.3-22.3 4.2-.1-.2 4.5-2.3 10.4-4.8l10.6-4.5-12.9-1.1c-7-.7-14-1.2-15.5-1.2-5.7 0-2.5-1.8 4.5-2.6l7.2-.7-9-1.4c-4.9-.7-10.8-1.7-13-2.1l-4-.9 5.8-.8c7.1-.9 8.4-2.5 2.1-2.5-5.2 0-29.8-3.6-32.7-4.8-1.5-.6-.8-1.1 3.2-2.6 3.5-1.2 5.1-2.4 5.1-3.6 0-1.5-1.4-1.8-9.7-2.4-5.4-.4-11.6-1-13.8-1.3l-4-.7 5.5-1.6 5.5-1.6-13-1.2c-7.1-.7-13.7-1.2-14.5-1.3-.8 0-.1-.6 1.5-1.4 2.4-1.1 2.6-1.4 1-1.5l-2-.1 2-.9c1.3-.6-2.7-.8-10.5-.5l-12.5.5 9.5-3.3c10.8-3.9 10.8-3.9-5.2-5.8-6-.7-10.8-1.6-10.8-1.9 0-.4 2.6-1.1 5.8-1.6l5.7-.9-7.5-4.1c-6.4-3.4-9.4-4.4-19.3-5.9-6.9-1.1-11.2-2.2-10.5-2.7.7-.4 2.7-.8 4.3-.8 3.7 0 4.9-.9 5.3-3.6.3-2-.4-2.3-6.5-3.3-7-1.2-31.2-7.7-32.1-8.6-.3-.3 3-.6 7.4-.6 4.3-.1 7-.4 5.9-.6-1.1-.3-4.3-1.4-7.1-2.4-4.1-1.6-5.1-2.3-4.7-3.8.4-1.6-.7-2.2-6.9-4-4-1.2-12-3.8-17.8-5.6l-10.5-3.5 8.5.5c6.4.4 8.1.3 6.7-.6-1-.6-1.6-1.8-1.3-2.7.4-1.3-3.3-3.6-17.4-10.7-9.8-4.9-17.7-9.1-17.5-9.3.2-.2 2.8.3 5.8 1.2 7.4 2.2 7.9 2 3.2-1l-4-2.5 5 .5c18.3 2.1 25 2.6 32.5 2.4l8.5-.1-7.9-.8c-10.4-1.1-17.4-2.6-26.6-5.6-9.3-3.2-14.2-5.6-26.7-13.4-9.2-5.7-9.4-6.3-1.8-4.3 3.2.9-9.4-10.3-16.2-14.3-3.4-2-6-3.9-5.8-4.1.4-.4 16.6 2.1 22 3.4 1.1.3-.7-1-3.9-2.8C89.7 443 81 435.4 78 430.5c-1.2-1.9-3.2-6.5-4.5-10.2-1.3-3.7-4.2-11.2-6.4-16.6-4.5-10.8-4.6-11.1-3.1-10.2.6.3 1 .2 1-.4 0-.6-1.7-1.9-3.7-3l-3.8-2 3.3-.1c2.9 0 3.2-.2 2.6-2.5-.8-3.3.6-3.2 4.1.5 1.6 1.6 3.4 3 3.9 3 .6 0 .5-.4-.2-.8-1.6-1.1 12.2-3.2 20.5-3.2 14.3 0 37.5 8.3 53.3 19 4.9 3.3 5.9 3.7 7.1 2.5 1.2-1.2 2.2-.9 6.6 1.9 4.9 3.1 8 3.9 19.4 5.2 8.5.9 31.7 10.7 41.8 17.7 3.3 2.2 4.5 2.6 5.1 1.7 1-1.6 13.3 5.2 21.9 12.1 5.3 4.2 21.1 13.3 21.8 12.5.2-.2-4.5-4.9-10.4-10.5l-10.8-10.2 9.8 3.6c5.3 1.9 12.5 5.3 16 7.5 5.4 3.4 6.3 3.7 7.4 2.4 1-1.4 1.5-1.4 4.5.2 1.8.9 5.5 3.2 8.2 5.1 3.4 2.5 5.1 3.2 5.9 2.4.8-.8.5-1.5-.9-2.6s-.9-1 2.1.3c6.9 3 25.8 13.3 29.2 15.8 3.6 2.7 4.9 3 6 1 .4-.7 1.3-1.5 1.9-1.7.6-.2-2.1-3.3-6.1-6.9-4-3.6-7.1-6.6-7-6.8.2-.2 6 2.5 12.9 6 6.9 3.6 12 5.7 11.3 4.9-.7-.9-3.6-4.3-6.3-7.6-5.7-6.8-7.7-9.7-5.3-7.9.8.6 5.7 4.2 10.9 7.9 5.2 3.8 12 8.9 15 11.4l5.5 4.6-4.7-6c-2.6-3.2-4.5-6.1-4.4-6.3.2-.2 2.8.8 5.8 2.3l5.3 2.6-3-2.7c-3.4-3-3.6-3 10.5 2.6 13.8 5.5 21.5 9.8 31.3 17.8 7.9 6.3 8.1 5.8.9-2-2.8-2.9-3.2-3.9-2.4-5.5.9-1.4.5-2.4-1.6-4.7l-2.7-2.8 6.5.6c3.6.3 13.7 1 22.5 1.5 15.9 1 26.6 2.3 33.8 4.2 2.7.7 4.9.7 7.4-.2l3.6-1.2-2.9-1.3c-1.6-.7-2.3-1.3-1.5-1.3 3.1-.2 25.2 4 30.3 5.8 6 2 6.8 1.9 6.8-1.1 0-2.4 2.5-2 16 2.6 5.2 1.8 10.4 3.6 11.5 4 1.1.4-2.5-1.6-7.9-4.4-5.5-2.7-10.1-5.2-10.3-5.4-.6-.6 20.6 3.3 28.7 5.3 6.7 1.7 7.8 1.7 11.8.3 3-1 6.5-1.3 10.9-.9 7.3.5 7.6 1-5-6.8-4.3-2.6-7.6-4.9-7.4-5.2.3-.2 5.9 1 12.5 2.7 15.5 3.9 15.5 3.9 13.8-.3-1.2-2.9-3.3-32.8-2.2-31.7.2.3 2 6.3 4 13.5 2 7.1 4.6 15 5.8 17.3 2 4 2.4 4.3 5.1 3.8 1.6-.3 3.6-.6 4.4-.6 1.1 0 1.4-.8 1.1-3-.3-1.9 0-3.1 1-3.5 2.9-1.1 15.4-.4 18.9 1 4.7 2 15.3 2 15.3.1 0-2.9 22.6-9 37.3-10.2 5.8-.4 8.7-1.1 8.7-1.9 0-1.5 14.1-3.5 25.1-3.6h7.4l-7.5-2.7c-9.7-3.5-16.3-8.2-19.6-13.7-2-3.6-2.8-6.6-3.5-15-.6-5.9-.9-11.1-.7-11.7.2-.6 2.3 3.5 4.7 9.1 2.4 5.7 5.9 11.9 8.1 14.3 7.1 8.2 18.6 11.5 31.6 9.4l6.5-1.1-6.6-1.9c-9.3-2.6-14.2-7.5-19.5-19.1l-4.1-8.9 8 7.7c9.8 9.6 14.1 11.6 27.4 12.8 23.2 2.1 32.5 4.5 38.4 10.1 1.3 1.2 2.3 1.7 2.3 1.1 0-1.6-6.2-6.9-17.8-15.1-5.6-4.1-10.2-7.6-10.2-7.8 0-.1 3.3 1.1 7.3 2.8 3.9 1.7 10.7 4.6 15 6.4 14.5 6.1 21.7 12 23.7 19.3 1.2 4.7 9.3 12.6 11.8 11.6 2.6-1 16.5-11.2 30.1-22.2 22.3-17.9 48.9-44.1 66.4-65.5 6.9-8.3 7.4-8.7 11.2-8.8 2.2 0 5.9.9 8.1 1.9z"/><path d="M912 378.1c-8.9 11.2-35.7 38.6-49.3 50.6-13.9 12.4-28.6 24-41.2 32.8-9.7 6.8-9.7 6.8-12.8 5.3-5.9-2.8-12.4-9.6-14.3-14.6-.9-2.6-2.3-5.4-3.1-6.2-1.1-1.3-1.2-1-.7 2 .4 1.9 1.2 4.1 1.8 4.9 1.7 2.1 1.4 8.1-.4 8.1-7.7-.2-20.7-2.2-24.4-3.9-3.6-1.6-4.6-1.7-4.6-.6 0 .8-1 2.6-2.2 4l-2.3 2.6-5.9-3.2-5.9-3.2 2.8 4.7c1.6 2.7 2.2 4.6 1.5 4.6-.7 0-2.1 1.1-3.2 2.5-3.9 5-11.8 5.4-29.8 1.4-10.9-2.4-11.7-2.3-5.2.6 2.9 1.3 9.6 5 15 8.2l9.7 5.8-9.8.3c-5.4.1-11.3-.2-13.2-.7l-3.4-.9 5.7 8.6c3.2 4.8 6.9 10.5 8.2 12.7l2.3 4-3.9-3.5c-2.1-2-7.3-6.8-11.5-10.7-4.2-3.9-10.8-8.9-14.5-11-10.3-5.9-11.3-6.1-7.2-1.1 3.2 4 5.8 8 5.8 9.1 0 .3-1.1 1.2-2.4 2.1-2.3 1.5-2.9 1.3-14.9-4.8-6.8-3.5-14.8-7.3-17.9-8.4-5.2-1.9-15.8-4.3-15.8-3.6 0 .2 1.7 1.1 3.8 1.9 2 .9 6.5 3.4 9.8 5.6 7.5 4.8 19.5 10 31.1 13.4 4.7 1.3 8.8 2.6 9 2.8.1.2-3.3 1.2-7.8 2.2-7.1 1.6-8.9 1.7-15.5.6-8.8-1.5-19.2-4.9-27.8-9.1l-6.1-3 3.5 3c5.4 4.7 22.7 17.2 30.3 22 3.7 2.3 6.6 4.4 6.4 4.6-.5.5-17.5-3.1-20.7-4.4-3.7-1.5-11.6-7.6-22.6-17.5-5.3-4.8-11-9.5-12.5-10.3l-2.8-1.4 1.9 3.2c1.6 2.9 4.3 11.8 3.7 12.5-.1.1-2.3-1.1-4.7-2.6-2.5-1.5-6.7-4-9.5-5.5l-5-2.8 3.5 2.8c1.9 1.6 5.3 4.5 7.5 6.6l4 3.7-2.7 2.7-2.7 2.7-5.8-5.3c-8-7.3-13.5-10.7-22.3-13.4-15.2-4.8-15.1-4.9-4.2 6.1 5.3 5.4 11 11.8 12.7 14.1l2.9 4.4-2.4 1.9c-1.4 1-2.8 1.8-3.1 1.6-.3-.1-3-2.9-5.8-6.2-7.4-8.4-15.6-15.1-22.7-18.6-3.4-1.6-6.6-2.9-7-2.9-.5 0 3.2 4.2 8.1 9.2 15.5 16 15.1 15.4 13 17.8-2.5 2.8-3.6 2.6-8-2.1-4.3-4.3-17.5-13.6-26.8-18.8-11.4-6.3-11.7-5.7-2.1 4.1 8.7 8.8 20.4 23.1 20.4 24.8 0 .4-1.2 1.5-2.6 2.5-2.6 1.7-2.7 1.6-6.6-2.2l-4-3.8 3.7 5.3c2.1 2.9 3.6 5.4 3.4 5.6-4.9 3.8-5 3.8-9.4-1.2-8.1-8.9-42.7-36.2-46.1-36.2-.6 0-1.9.9-2.9 2-1.7 1.9-1.8 1.9-5.9-.9-9.6-6.6-25.2-12.6-37.6-14.6l-4.5-.7 5 4.3c12.9 11.1 53.5 52.6 53.5 54.8 0 .6-1.1 1.8-2.4 2.6-2.4 1.6-2.6 1.5-12.8-8.7-20.5-20.6-55-48.2-64.6-51.8-2.9-1.1-5.8-2-6.5-2-.6 0 1.9 2.8 5.6 6.1l6.9 6.2-2.6 2.6-2.6 2.5-3-2.9c-1.6-1.6-3-2.6-3-2.2 0 .3 2.6 4.8 5.8 9.9 3.3 5.1 8.7 14.2 12.2 20.2l6.2 10.9-2.3 1.8c-1.3 1-2.6 1.9-3 1.9-.3 0-2.5-2.8-4.9-6.3-5.8-8.4-19.9-25.4-24.5-29.7l-3.8-3.5 4.1 6.1c2.3 3.4 7.2 11.3 11 17.6l6.9 11.4-3 1.8c-2.6 1.4-3.2 1.5-3.8.3-5.2-9.2-25.5-34.2-34.7-42.8-11.2-10.3-11.8-10.4-7.1-.7 5 10.4 11.6 30.6 10.3 31.8-.5.4-1.9 1-3.2 1.2-2 .3-2.6-.5-4.6-6.4-1.3-3.8-3.9-9.4-5.6-12.5-3-5.4-10.7-16.3-11.4-16.3-.1 0 1.4 6 3.5 13.2 2.1 7.3 3.7 13.6 3.6 14-.1.4-3.4-4.5-7.4-11-3.9-6.4-7.9-12.6-8.8-13.7-1.5-1.9-1.6-1.7-1 3.5.4 3 .9 6.4 1.1 7.5.5 1.7.2 1.6-1.6-.5-2-2.5-2-2.5.1 3 3.1 8 3.3 9 1.8 9-.8 0-2.4.3-3.5.6-1.7.5-2.4-.1-3.3-2.7-1-2.9-8.9-15.9-9.6-15.9-.2 0 .8 3.3 2.1 7.4 2.3 7.4 4.9 23 4.2 26.2-.2 1.1-4.3-5.1-10.2-15.4-5.4-9.5-10-17.2-10.2-17.2-.4 0 .5 2.5 3.5 9.3 2.7 6.3 2.7 7.1-.6 8.3-2.7 1-2.9.8-7.7-8.1-5.1-9.5-13.8-23-18.1-28l-2.5-3 1.7 3.8c1.6 3.6 1.6 3.8-.3 5.2-2.9 2.2-3.8 1.9-7.4-2.8-6.4-7.9-15.2-17.6-17.7-19.2-2.3-1.6-2.3-1.5.7 3.7 4.6 7.8 14 29.2 14 31.7 0 .5-1.4 1.4-3 2l-3 1-3.7-8c-2-4.4-3.7-7.8-3.9-7.7-.1.2.9 3.6 2.3 7.7 1.3 4 2.1 7.7 1.6 8.2-.4.4-2 1-3.4 1.4-2.4.6-2.7.2-4.4-4.2-4.8-13-14.8-28.3-25.4-38.7l-5.9-5.9-2.9 2.1-2.8 2.1-6.5-6.4c-9.6-9.3-33.9-25.9-35.6-24.2-.3.3 1.8 5.6 4.5 11.8 2.8 6.2 4.9 11.4 4.7 11.6-.1.2-4-4.4-8.5-10.2-9.5-12.2-12.2-14.9-17.4-17.6-4.3-2.2-4.5-1.9-1.7 2.6 2 3.2 12 29 12 30.9 0 .5-3.8-4.5-8.4-11-4.7-6.5-9.8-13.5-11.6-15.4l-3-3.5 1.5 3.9c.8 2.2 1.4 4 1.3 4.1-.7.6-4.7 2.5-5.2 2.5-.3 0-2.3-2.6-4.5-5.8-4-5.9-16-18-22-22.2l-3.5-2.4 3.1 4.4c4.2 6.2 9.5 16.1 13.7 25.2l3.5 7.8-3 1.6c-1.7.8-3.2 1.4-3.3 1.2-.2-.2-2.7-3.9-5.6-8.3-8-12-21-29.3-26.9-35.7-5.3-5.8-14-11-20.8-12.3l-3.3-.7 3.4 5.1c3.3 4.8 6.7 12.7 8.2 18.8.7 2.6.2 2.3-5.7-2.8-6.9-6-14-11.1-14.7-10.5-.2.3.1 1.4.8 2.5 1.3 2.5-.1 2.8-4.6 1-2.7-1-2.8-1-1 .9 3 3.4 13.5 8.4 29.1 13.8 8.2 2.9 14.2 5.3 13.2 5.3-3.3.1-27.1-2.9-31.6-3.9-2.4-.6-4.6-.9-4.9-.6-.4.5 9.6 5.5 14 7 1.2.3 1.8 1.6 1.8 3.6 0 2.7-.3 3-3.3 3-1.9 0-5.6-.7-8.2-1.5-2.7-.8-5-1.3-5.2-1.1-.6.5 8.3 6.4 14.4 9.5 13.3 6.7 34.5 10.9 59.8 12l15 .6-11.5 3.9c-11.5 3.8-11.5 3.8-23.2 3.2l-11.8-.7v2.6c0 2.3-.3 2.5-5.2 2.6l-5.3.1 4 1.3c2.3.7 8.3 1.6 13.5 1.9 14.3 1.1 14.8 1.7 3.5 4.1-9.4 2.1-9.8 2.3-7.1 3.4 6 2.4 21.4 4.3 34.6 4.3 12.2 0 18.4-.6 29-2.8l3.5-.7-3.7 4.5c-2.1 2.5-3.5 4.8-3.2 5.1.3.2-5.3 3.5-12.3 7.2-7 3.7-13 7-13.3 7.3-1.5 1.5 19.6-1 27-3.2 4.6-1.4 8.6-2.3 8.8-2.2.1.2-2.5 2.9-6 6.1-6.3 5.7-6.3 5.7-2.8 5 1.9-.4 9.7-3.6 17.2-7.1 7.6-3.5 14.1-6.4 14.4-6.4 1.2 0-19.3 16.2-24.1 19-4.2 2.5-4.6 3-2.5 3 4.6 0 14.8-2.9 24.6-7 5.3-2.2 9.9-3.9 10.1-3.6.2.2-2.6 2.9-6.2 6.1-3.6 3.2-6.4 6-6.2 6.2.3.2 3.9-1.7 8.1-4.2 4.2-2.5 7.9-4.5 8.2-4.5.3 0-3.4 4.3-8.3 9.5-6.3 6.9-10.4 10.4-14.5 12.4-6.8 3.4-5.7 4.1 5.3 3.4l7.4-.5-2.9 3.1c-3.6 3.8-3.8 3.8 13 1.6 6.4-.9 11.8-1.4 12-1.2.2.2-2.4 1.9-5.7 3.8-7.3 4.1-6 4.7 5.1 2.5 9.9-2 21.8-6 29.3-9.7 3.1-1.6 5.7-2.6 5.7-2.3 0 .3-.8 2.9-1.8 5.6-2.1 6.1-7.2 11.7-13.5 14.7-2.5 1.2-5.1 2.9-5.8 3.7-2.6 3.1 16.2-5.5 25.1-11.5 2.4-1.7 4.6-2.8 4.8-2.6 1 .9-3 10.1-5.5 12.7-1.5 1.5-2.4 2.8-2 2.8.4 0 4.7-2 9.6-4.4 10.8-5.5 27.5-16.6 35.9-24 3.5-3.1 6.5-5.6 6.7-5.6.6 0-1.2 4.5-4.6 11.6-1.6 3.4-4.7 7.8-6.9 9.8-3.1 2.8-4 4.4-4 6.8-.1 6.3-1.8 12-4.7 16.1-1.7 2.3-3.3 5.5-3.7 7l-.7 2.8 4.3-2.2c2.4-1.2 6-3.3 8.1-4.6 2-1.3 3.7-2.1 3.7-1.8 0 .3-1.1 2.8-2.5 5.6l-2.6 5 4.3-2.2c5-2.5 11.4-7.5 17-13.3l3.9-4.1-.6 5c-.3 2.7-.8 6-1.1 7.3-.5 2.3-.4 2.3 4.1-.8l4.6-3.2-1.6 3.9c-2.7 6.5-6.4 12-9.7 14.8l-3.3 2.7 3.5-2c21-12.2 31.6-18.2 32.1-18.2.4 0 1.4 1.1 2.3 2.5 1.6 2.4 1.5 2.5-4 7.7-3.1 2.9-7.5 7.5-9.7 10.2-3.7 4.4-3.9 4.8-1.7 4.1 5.6-1.7 13.6-6 17.2-9.3l3.9-3.5 2.7 2.6 2.7 2.7-4.5 4.1-4.5 4.1 4.6-2.6 4.5-2.5 1.8 3c1.7 3 1.7 3.1 0 4.4-1.1.7-3 2.2-4.4 3.4l-2.5 2.2 2.8-1.7c2.7-1.6 2.7-1.6 2.7.9 0 1.4.4 2.8.9 3.1 1.4.9 9.8-5.3 16.8-12.2 3.5-3.3 9.6-8.4 13.8-11.2l7.4-5 1.6 3.1c1.6 3 1.6 3.1-1.9 6.9-1.9 2.1-4.2 5.4-5.1 7.2-1 1.8-4.3 5.9-7.4 9.2l-5.6 5.8 5-2.5c2.8-1.4 7-4.1 9.5-6 2.4-2 4.5-3.5 4.7-3.4.1.2-.3 2.2-.8 4.6-.5 2.4-.8 4.5-.6 4.8.3.2 3.1-1.9 6.3-4.6 3.2-2.8 6-4.8 6.2-4.6.2.1-1.1 3.1-2.8 6.5-2.4 4.7-2.8 6.1-1.6 5.7 3.9-1.5 14.6-9.6 21.8-16.5l7.8-7.5v4.2c0 2.3-.7 5.8-1.5 7.9-1.4 3.6-1.3 3.5 4.7-2.7 4.7-5 6-5.9 5.5-4-1.6 6.9-1.9 10.2-.8 9.5 1.4-.9 1.4-.9-.8 5.7-1.1 3.2-1.7 5.7-1.4 5.7.3 0 2.7-1.8 5.4-4.1 2.7-2.2 4.9-3.7 4.9-3.2 0 .4-1.8 4.1-4 8.2s-3.8 7.6-3.6 7.8c.7.7 14.9-7.5 23.8-13.7 5.1-3.5 14.6-11.8 21.1-18.3 6.4-6.4 11.7-11.4 11.7-11 0 .4-1.1 4.4-2.5 8.9-2.7 9-7.3 15.7-14.4 21.3-2.2 1.8-5.1 4.7-6.3 6.4l-2.3 3.1 4-2.3c2.2-1.3 6.4-4.2 9.3-6.3 2.8-2.1 5.2-3.5 5.2-3s-.9 3.4-1.9 6.5l-2 5.6 2.7-1.2c12.8-5.6 31.7-19.5 48.5-35.6l8.8-8.5-3.1 8.3c-1.7 4.6-3.9 9.5-4.9 11-2.7 3.7-11.7 12.1-17.9 16.5-2.8 2.1-5.2 4-5.2 4.2 0 1.5 13-6.6 20-12.4 4.7-3.9 8.6-6.9 8.8-6.8.1.2-2 4-4.8 8.4-2.7 4.5-5 8.4-5 8.8 0 .3 2.6-.9 5.8-2.6 11.9-6.7 22.7-16.7 32.2-30 7.4-10.2 14.3-17.4 23-23.6 5.2-3.7 5.7-3.9 12.5-3.6 6.6.3 7.1.1 9.1-2.4l2.2-2.7-.2 2.9c-.2 1.6-.7 3.8-1.3 4.9-.6 1.1-2.2 5.6-3.7 10-3.4 10.3-6.8 16.2-15.1 25.7-7 8.2-7.1 10.3 0 4 2.3-2 7.3-6.2 11.1-9.3 8.7-7 20.8-21.4 32.6-38.7 4.9-7.4 9.2-13.2 9.4-12.9.2.2-.5 3.3-1.6 6.8s-2 6.8-2 7.2c0 .5 3.4-3.5 7.6-8.7 4.1-5.3 7.7-9.6 7.9-9.6.5 0 .1 1.2-4.4 11.9l-3.1 7.3 2.2 1.8 2.2 1.8-2.8 5.2c-3.5 6.3-2.9 7.5 1 1.9 4-5.8 13.6-14.3 22.4-19.7 4.1-2.6 14.3-10.6 22.5-17.8 8.3-7.3 15.2-13 15.4-12.8.2.2-2.7 4.3-6.5 9.1-3.7 4.8-8.3 10.8-10.2 13.3-3 4-3.1 4.1-.4 1.1 2.7-2.9 3.3-3.2 4.7-2.1 1.9 1.5 1.6 1.8 4.7-5 3.5-7.8 5.6-9.8 10.5-10.6l4.3-.6-6 10.9c-3.2 6-6.8 13.3-8 16.3l-2 5.5 3.1-3.5c11.7-13 23.8-24.4 28.3-26.7 9-4.4 10.1-7.4 6.6-18.5-1.1-3.4-2-6.5-2-6.8 0-1.4 12 11.7 12.5 13.7l.5 2.3 4.3-2 4.2-2.1-3.8 3.3c-3.5 3.1-4.9 7-2.8 8.2 1.4.9 11.1-19.5 12.4-26.1l1.2-6.2 51-43.1c28.1-23.8 53-45.1 55.4-47.4 11.8-11.2 13.2-17.9 3.9-19.1-3.1-.5-3.7 0-9.8 7.6z"/><path d="M769.3 445.7c5.9 5.2 13.7 10 13.7 8.5 0-1.6-8.5-8.9-12.9-11.1-6.4-3.3-6.6-2.5-.8 2.6zM681.9 468.6c1.8.8 3.6 1.3 3.9 1 .8-.9 0-1.3-3.8-1.9l-3.5-.6 3.4 1.5zM646.1 485.4c1 .9 6.9 3.6 6.9 3.2 0-.6-5.5-3.6-6.6-3.6-.4 0-.5.2-.3.4zM768.9 531.7c-2.9 3.5-4.1 5.3-3.6 5.3.2 0 1.7-1.6 3.1-3.5 2.8-3.6 3.1-4.9.5-1.8zM318.5 551.7c-2.2 1.5-6.6 4.1-9.8 5.8-4.1 2.3-6.6 4.5-8.7 7.8-1.6 2.6-2.7 4.7-2.4 4.7 1.8 0 11.3-5.8 15.1-9.2 4.1-3.8 10.9-11.8 10.1-11.8-.2 0-2.1 1.2-4.3 2.7zM642 556.2c-3.4 1.3-7.1 3.8-10 6.8-5.6 5.8-14.9 19.1-14.3 20.7.2.6-.5 3-1.7 5.3s-1.9 4.4-1.7 4.6c.9.9 12.7-10 18.9-17.4 9.6-11.5 17-22.3 15.1-22.1-.4 0-3.3.9-6.3 2.1zM697.6 566.3c-3 5.1-5.6 12.1-5.6 15.1.1 2.1.1 2.1 1.3.1 1.3-2.1 7.6-19.5 7.1-19.5-.2 0-1.4 1.9-2.8 4.3zM716.4 577.5c-3.4 2.4-6.4 5.4-6.7 6.5l-.5 2 2.8-2c4.4-3.2 12.6-10.9 11.5-10.9-.5 0-3.8 2-7.1 4.4zM679 589.5c-.9 3.6-1.4 6.5-1 6.5.3 0 1.5-.8 2.7-1.8 2-1.6 2.1-2.1 1.2-6.5-.6-2.6-1.1-4.7-1.2-4.7-.1 0-.9 2.9-1.7 6.5z"/></svg>